<mxfile host="app.diagrams.net" modified="2021-06-22T08:27:26.412Z" agent="5.0 (Windows NT 10.0; Win64; x64) AppleWebKit/537.36 (KHTML, like Gecko) Chrome/91.0.4472.114 Safari/537.36" etag="d87_s2P2uzsdQ3ebDYn9" version="14.8.0" type="github">
  <diagram name="Page-1" id="c4acf3e9-155e-7222-9cf6-157b1a14988f">
    <mxGraphModel dx="1185" dy="662" grid="1" gridSize="13" guides="1" tooltips="1" connect="1" arrows="1" fold="1" page="1" pageScale="1" pageWidth="850" pageHeight="1100" background="none" math="0" shadow="1">
      <root>
        <mxCell id="0" />
        <mxCell id="1" parent="0" />
        <mxCell id="m22so4oLKIDoEstXhJoG-4" style="rounded=1;sketch=0;orthogonalLoop=1;jettySize=auto;html=1;" edge="1" parent="1" source="m22so4oLKIDoEstXhJoG-2" target="m22so4oLKIDoEstXhJoG-3">
          <mxGeometry relative="1" as="geometry" />
        </mxCell>
        <mxCell id="m22so4oLKIDoEstXhJoG-6" style="edgeStyle=none;rounded=1;sketch=0;orthogonalLoop=1;jettySize=auto;html=1;" edge="1" parent="1" source="m22so4oLKIDoEstXhJoG-2" target="m22so4oLKIDoEstXhJoG-7">
          <mxGeometry relative="1" as="geometry">
            <mxPoint x="182" y="195" as="targetPoint" />
          </mxGeometry>
        </mxCell>
        <mxCell id="m22so4oLKIDoEstXhJoG-2" value="Администратор" style="shape=umlActor;verticalLabelPosition=bottom;verticalAlign=top;html=1;rounded=0;sketch=0;" vertex="1" parent="1">
          <mxGeometry x="52" y="65" width="30" height="60" as="geometry" />
        </mxCell>
        <mxCell id="m22so4oLKIDoEstXhJoG-3" value="Вход в систему" style="ellipse;whiteSpace=wrap;html=1;rounded=0;sketch=0;" vertex="1" parent="1">
          <mxGeometry x="425" y="125" width="140" height="70" as="geometry" />
        </mxCell>
        <mxCell id="m22so4oLKIDoEstXhJoG-7" value="Вести список заказов&lt;br&gt;" style="ellipse;whiteSpace=wrap;html=1;rounded=0;sketch=0;" vertex="1" parent="1">
          <mxGeometry x="247" y="221" width="140" height="70" as="geometry" />
        </mxCell>
        <mxCell id="m22so4oLKIDoEstXhJoG-10" value="Вести список оказываемых услуг" style="ellipse;whiteSpace=wrap;html=1;rounded=0;sketch=0;" vertex="1" parent="1">
          <mxGeometry x="247" y="364" width="140" height="70" as="geometry" />
        </mxCell>
        <mxCell id="m22so4oLKIDoEstXhJoG-19" value="" style="endArrow=block;dashed=1;endFill=0;endSize=12;html=1;entryX=0.2;entryY=0.029;entryDx=0;entryDy=0;entryPerimeter=0;" edge="1" parent="1" source="m22so4oLKIDoEstXhJoG-2" target="m22so4oLKIDoEstXhJoG-10">
          <mxGeometry width="160" relative="1" as="geometry">
            <mxPoint x="221" y="377" as="sourcePoint" />
            <mxPoint x="381" y="377" as="targetPoint" />
          </mxGeometry>
        </mxCell>
        <mxCell id="m22so4oLKIDoEstXhJoG-20" value="Оставлять отзывы, оценки и коментарии" style="ellipse;whiteSpace=wrap;html=1;rounded=0;sketch=0;" vertex="1" parent="1">
          <mxGeometry x="425" y="221" width="140" height="70" as="geometry" />
        </mxCell>
        <mxCell id="m22so4oLKIDoEstXhJoG-21" value="Заказ товара" style="ellipse;whiteSpace=wrap;html=1;rounded=0;sketch=0;" vertex="1" parent="1">
          <mxGeometry x="425" y="325" width="140" height="70" as="geometry" />
        </mxCell>
        <mxCell id="m22so4oLKIDoEstXhJoG-22" value="Просмотр странниц" style="ellipse;whiteSpace=wrap;html=1;rounded=0;sketch=0;" vertex="1" parent="1">
          <mxGeometry x="425" y="434" width="140" height="70" as="geometry" />
        </mxCell>
        <mxCell id="m22so4oLKIDoEstXhJoG-23" value="Зарегестрированный пользователь" style="shape=umlActor;verticalLabelPosition=bottom;verticalAlign=top;html=1;rounded=0;sketch=0;" vertex="1" parent="1">
          <mxGeometry x="650" y="260" width="30" height="60" as="geometry" />
        </mxCell>
        <mxCell id="m22so4oLKIDoEstXhJoG-24" value="Гость" style="shape=umlActor;verticalLabelPosition=bottom;verticalAlign=top;html=1;rounded=0;sketch=0;" vertex="1" parent="1">
          <mxGeometry x="650" y="455" width="30" height="60" as="geometry" />
        </mxCell>
        <mxCell id="m22so4oLKIDoEstXhJoG-25" value="Пользователь" style="shape=umlActor;verticalLabelPosition=bottom;verticalAlign=top;html=1;rounded=0;sketch=0;" vertex="1" parent="1">
          <mxGeometry x="780" y="364" width="30" height="60" as="geometry" />
        </mxCell>
        <mxCell id="m22so4oLKIDoEstXhJoG-31" value="" style="endArrow=open;endFill=1;endSize=12;html=1;entryX=0.6;entryY=0.733;entryDx=0;entryDy=0;entryPerimeter=0;" edge="1" parent="1" source="m22so4oLKIDoEstXhJoG-25" target="m22so4oLKIDoEstXhJoG-24">
          <mxGeometry width="160" relative="1" as="geometry">
            <mxPoint x="221" y="364" as="sourcePoint" />
            <mxPoint x="689" y="507" as="targetPoint" />
          </mxGeometry>
        </mxCell>
        <mxCell id="m22so4oLKIDoEstXhJoG-35" value="" style="endArrow=open;endFill=1;endSize=12;html=1;exitX=0.5;exitY=0.5;exitDx=0;exitDy=0;exitPerimeter=0;entryX=0.5;entryY=0.5;entryDx=0;entryDy=0;entryPerimeter=0;" edge="1" parent="1" source="m22so4oLKIDoEstXhJoG-25" target="m22so4oLKIDoEstXhJoG-23">
          <mxGeometry width="160" relative="1" as="geometry">
            <mxPoint x="221" y="364" as="sourcePoint" />
            <mxPoint x="381" y="364" as="targetPoint" />
          </mxGeometry>
        </mxCell>
        <mxCell id="m22so4oLKIDoEstXhJoG-36" value="" style="endArrow=open;endFill=1;endSize=12;html=1;exitX=0.5;exitY=0.4;exitDx=0;exitDy=0;exitPerimeter=0;" edge="1" parent="1" source="m22so4oLKIDoEstXhJoG-23" target="m22so4oLKIDoEstXhJoG-3">
          <mxGeometry width="160" relative="1" as="geometry">
            <mxPoint x="221" y="364" as="sourcePoint" />
            <mxPoint x="381" y="364" as="targetPoint" />
          </mxGeometry>
        </mxCell>
        <mxCell id="m22so4oLKIDoEstXhJoG-37" value="" style="endArrow=open;endFill=1;endSize=12;html=1;exitX=0.5;exitY=0.5;exitDx=0;exitDy=0;exitPerimeter=0;" edge="1" parent="1" source="m22so4oLKIDoEstXhJoG-24" target="m22so4oLKIDoEstXhJoG-22">
          <mxGeometry width="160" relative="1" as="geometry">
            <mxPoint x="221" y="364" as="sourcePoint" />
            <mxPoint x="381" y="364" as="targetPoint" />
          </mxGeometry>
        </mxCell>
        <mxCell id="m22so4oLKIDoEstXhJoG-38" value="" style="endArrow=open;endFill=1;endSize=12;html=1;exitX=0.633;exitY=0.617;exitDx=0;exitDy=0;exitPerimeter=0;" edge="1" parent="1" source="m22so4oLKIDoEstXhJoG-23" target="m22so4oLKIDoEstXhJoG-20">
          <mxGeometry width="160" relative="1" as="geometry">
            <mxPoint x="221" y="364" as="sourcePoint" />
            <mxPoint x="381" y="364" as="targetPoint" />
          </mxGeometry>
        </mxCell>
        <mxCell id="m22so4oLKIDoEstXhJoG-39" value="" style="endArrow=open;endFill=1;endSize=12;html=1;exitX=0;exitY=1;exitDx=0;exitDy=0;exitPerimeter=0;entryX=1;entryY=0;entryDx=0;entryDy=0;" edge="1" parent="1" source="m22so4oLKIDoEstXhJoG-23" target="m22so4oLKIDoEstXhJoG-22">
          <mxGeometry width="160" relative="1" as="geometry">
            <mxPoint x="221" y="364" as="sourcePoint" />
            <mxPoint x="381" y="364" as="targetPoint" />
          </mxGeometry>
        </mxCell>
        <mxCell id="m22so4oLKIDoEstXhJoG-40" value="" style="endArrow=open;endFill=1;endSize=12;html=1;" edge="1" parent="1" target="m22so4oLKIDoEstXhJoG-21">
          <mxGeometry width="160" relative="1" as="geometry">
            <mxPoint x="663" y="299" as="sourcePoint" />
            <mxPoint x="381" y="364" as="targetPoint" />
          </mxGeometry>
        </mxCell>
      </root>
    </mxGraphModel>
  </diagram>
</mxfile>
